<svg width="172" height="28" viewBox="0 0 172 28" fill="none" xmlns="http://www.w3.org/2000/svg">
<path d="M2.25634 21V1.4H9.50834C11.0763 1.4 12.3737 1.66133 13.4003 2.184C14.427 2.70667 15.1923 3.42533 15.6963 4.34C16.2003 5.25467 16.4523 6.28133 16.4523 7.42C16.4523 8.50267 16.2097 9.50133 15.7243 10.416C15.239 11.312 14.483 12.04 13.4563 12.6C12.4297 13.1413 11.1137 13.412 9.50834 13.412H5.84034V21H2.25634ZM5.84034 10.5H9.28434C10.535 10.5 11.431 10.2293 11.9723 9.688C12.5323 9.128 12.8123 8.372 12.8123 7.42C12.8123 6.44933 12.5323 5.69333 11.9723 5.152C11.431 4.592 10.535 4.312 9.28434 4.312H5.84034V10.5ZM22.6932 21.336C21.4985 21.336 20.5185 21.1493 19.7532 20.776C18.9878 20.384 18.4185 19.8707 18.0452 19.236C17.6718 18.6013 17.4852 17.9013 17.4852 17.136C17.4852 15.848 17.9892 14.8027 18.9972 14C20.0052 13.1973 21.5172 12.796 23.5332 12.796H27.0612V12.46C27.0612 11.508 26.7905 10.808 26.2492 10.36C25.7078 9.912 25.0358 9.688 24.2332 9.688C23.5052 9.688 22.8705 9.86533 22.3292 10.22C21.7878 10.556 21.4518 11.06 21.3212 11.732H17.8212C17.9145 10.724 18.2505 9.84667 18.8292 9.1C19.4265 8.35333 20.1918 7.784 21.1252 7.392C22.0585 6.98133 23.1038 6.776 24.2612 6.776C26.2398 6.776 27.7985 7.27067 28.9372 8.26C30.0758 9.24933 30.6452 10.6493 30.6452 12.46V21H27.5932L27.2572 18.76C26.8465 19.5067 26.2678 20.1227 25.5212 20.608C24.7932 21.0933 23.8505 21.336 22.6932 21.336ZM23.5052 18.536C24.5318 18.536 25.3252 18.2 25.8852 17.528C26.4638 16.856 26.8278 16.0253 26.9772 15.036H23.9252C22.9732 15.036 22.2918 15.2133 21.8812 15.568C21.4705 15.904 21.2652 16.324 21.2652 16.828C21.2652 17.3693 21.4705 17.7893 21.8812 18.088C22.2918 18.3867 22.8332 18.536 23.5052 18.536ZM33.6653 21V7.112H36.8293L37.1373 8.988C37.5853 8.316 38.1733 7.784 38.9013 7.392C39.648 6.98133 40.5066 6.776 41.4773 6.776C43.624 6.776 45.1453 7.60667 46.0413 9.268C46.5453 8.50267 47.2173 7.896 48.0573 7.448C48.916 7 49.8493 6.776 50.8573 6.776C52.668 6.776 54.0586 7.31733 55.0293 8.4C56 9.48267 56.4853 11.0693 56.4853 13.16V21H52.9013V13.496C52.9013 12.3013 52.668 11.3867 52.2013 10.752C51.7533 10.1173 51.0533 9.8 50.1013 9.8C49.1306 9.8 48.3466 10.1547 47.7493 10.864C47.1706 11.5733 46.8813 12.5627 46.8813 13.832V21H43.2973V13.496C43.2973 12.3013 43.064 11.3867 42.5973 10.752C42.1306 10.1173 41.412 9.8 40.4413 9.8C39.4893 9.8 38.7146 10.1547 38.1173 10.864C37.5386 11.5733 37.2493 12.5627 37.2493 13.832V21H33.6653ZM64.696 21.336C62.96 21.336 61.616 20.7947 60.664 19.712C59.7306 18.6293 59.264 17.0427 59.264 14.952V7.112H62.82V14.616C62.82 15.8107 63.0626 16.7253 63.548 17.36C64.0333 17.9947 64.7986 18.312 65.844 18.312C66.8333 18.312 67.6453 17.9573 68.28 17.248C68.9333 16.5387 69.26 15.5493 69.26 14.28V7.112H72.844V21H69.68L69.4 18.648C68.9706 19.4693 68.3453 20.1227 67.524 20.608C66.7213 21.0933 65.7786 21.336 64.696 21.336ZM76.1231 21V7.112H79.2871L79.5671 9.464C79.9965 8.64267 80.6125 7.98933 81.4151 7.504C82.2365 7.01867 83.1978 6.776 84.2991 6.776C86.0165 6.776 87.3511 7.31733 88.3031 8.4C89.2551 9.48267 89.7311 11.0693 89.7311 13.16V21H86.1471V13.496C86.1471 12.3013 85.9045 11.3867 85.4191 10.752C84.9338 10.1173 84.1778 9.8 83.1511 9.8C82.1431 9.8 81.3125 10.1547 80.6591 10.864C80.0245 11.5733 79.7071 12.5627 79.7071 13.832V21H76.1231ZM98.6383 16.856C97.9663 16.856 97.3409 16.7813 96.7623 16.632L95.7263 17.668C96.0436 17.836 96.4729 17.976 97.0143 18.088C97.5556 18.2 98.4329 18.312 99.6463 18.424C101.494 18.592 102.838 19.0307 103.678 19.74C104.518 20.4493 104.938 21.4293 104.938 22.68C104.938 23.5013 104.714 24.276 104.266 25.004C103.818 25.7507 103.128 26.348 102.194 26.796C101.261 27.2627 100.066 27.496 98.6103 27.496C96.6316 27.496 95.0356 27.1227 93.8223 26.376C92.6089 25.648 92.0023 24.5467 92.0023 23.072C92.0023 21.8213 92.6089 20.7387 93.8223 19.824C93.4489 19.656 93.1223 19.4787 92.8423 19.292C92.5809 19.1053 92.3476 18.9093 92.1423 18.704V18.06L94.5783 15.484C93.4956 14.532 92.9543 13.3093 92.9543 11.816C92.9543 10.8827 93.1783 10.0333 93.6263 9.268C94.0929 8.50267 94.7463 7.896 95.5863 7.448C96.4263 7 97.4436 6.776 98.6383 6.776C99.4223 6.776 100.15 6.888 100.822 7.112H106.086V9.296L103.706 9.464C104.08 10.1733 104.266 10.9573 104.266 11.816C104.266 12.7493 104.042 13.5987 103.594 14.364C103.146 15.1293 102.493 15.736 101.634 16.184C100.794 16.632 99.7956 16.856 98.6383 16.856ZM98.6383 14.112C99.3663 14.112 99.9636 13.916 100.43 13.524C100.916 13.132 101.158 12.572 101.158 11.844C101.158 11.116 100.916 10.556 100.43 10.164C99.9636 9.772 99.3663 9.576 98.6383 9.576C97.8729 9.576 97.2569 9.772 96.7903 10.164C96.3236 10.556 96.0903 11.116 96.0903 11.844C96.0903 12.572 96.3236 13.132 96.7903 13.524C97.2569 13.916 97.8729 14.112 98.6383 14.112ZM95.2783 22.708C95.2783 23.3987 95.5956 23.912 96.2303 24.248C96.8836 24.6027 97.6769 24.78 98.6103 24.78C99.5063 24.78 100.234 24.5933 100.794 24.22C101.354 23.8653 101.634 23.38 101.634 22.764C101.634 22.26 101.448 21.84 101.074 21.504C100.72 21.168 100.001 20.9627 98.9183 20.888C98.1529 20.832 97.4436 20.748 96.7903 20.636C96.2489 20.9347 95.8569 21.2613 95.6143 21.616C95.3903 21.9707 95.2783 22.3347 95.2783 22.708ZM108.3 21V0.839999H111.884V12.74L116.812 7.112H121.068L115.384 13.44L121.992 21H117.512L111.884 14.028V21H108.3ZM128.137 21.336C126.942 21.336 125.962 21.1493 125.197 20.776C124.432 20.384 123.862 19.8707 123.489 19.236C123.116 18.6013 122.929 17.9013 122.929 17.136C122.929 15.848 123.433 14.8027 124.441 14C125.449 13.1973 126.961 12.796 128.977 12.796H132.505V12.46C132.505 11.508 132.234 10.808 131.693 10.36C131.152 9.912 130.48 9.688 129.677 9.688C128.949 9.688 128.314 9.86533 127.773 10.22C127.232 10.556 126.896 11.06 126.765 11.732H123.265C123.358 10.724 123.694 9.84667 124.273 9.1C124.87 8.35333 125.636 7.784 126.569 7.392C127.502 6.98133 128.548 6.776 129.705 6.776C131.684 6.776 133.242 7.27067 134.381 8.26C135.52 9.24933 136.089 10.6493 136.089 12.46V21H133.037L132.701 18.76C132.29 19.5067 131.712 20.1227 130.965 20.608C130.237 21.0933 129.294 21.336 128.137 21.336ZM128.949 18.536C129.976 18.536 130.769 18.2 131.329 17.528C131.908 16.856 132.272 16.0253 132.421 15.036H129.369C128.417 15.036 127.736 15.2133 127.325 15.568C126.914 15.904 126.709 16.324 126.709 16.828C126.709 17.3693 126.914 17.7893 127.325 18.088C127.736 18.3867 128.277 18.536 128.949 18.536ZM144.849 21.336C143.617 21.336 142.534 21.14 141.601 20.748C140.668 20.3373 139.921 19.7773 139.361 19.068C138.801 18.3587 138.465 17.5373 138.353 16.604H141.965C142.077 17.1453 142.376 17.612 142.861 18.004C143.365 18.3773 144.009 18.564 144.793 18.564C145.577 18.564 146.146 18.4053 146.501 18.088C146.874 17.7707 147.061 17.4067 147.061 16.996C147.061 16.3987 146.8 15.9973 146.277 15.792C145.754 15.568 145.026 15.3533 144.093 15.148C143.496 15.0173 142.889 14.8587 142.273 14.672C141.657 14.4853 141.088 14.252 140.565 13.972C140.061 13.6733 139.65 13.3 139.333 12.852C139.016 12.3853 138.857 11.816 138.857 11.144C138.857 9.912 139.342 8.876 140.313 8.036C141.302 7.196 142.684 6.776 144.457 6.776C146.1 6.776 147.406 7.15867 148.377 7.924C149.366 8.68933 149.954 9.744 150.141 11.088H146.753C146.548 10.0613 145.773 9.548 144.429 9.548C143.757 9.548 143.234 9.67867 142.861 9.94C142.506 10.2013 142.329 10.528 142.329 10.92C142.329 11.3307 142.6 11.6573 143.141 11.9C143.682 12.1427 144.401 12.3667 145.297 12.572C146.268 12.796 147.154 13.048 147.957 13.328C148.778 13.5893 149.432 13.9907 149.917 14.532C150.402 15.0547 150.645 15.8107 150.645 16.8C150.664 17.6587 150.44 18.4333 149.973 19.124C149.506 19.8147 148.834 20.356 147.957 20.748C147.08 21.14 146.044 21.336 144.849 21.336Z" fill="#3D41D7"/>
<path d="M161.003 11.322V3.6H163.775L165.799 8.858L167.999 3.6H170.573V11.322H168.637L168.593 6.262L166.459 11.322H165.007L162.873 6.086V11.322H161.003ZM155.855 11.322L155.877 5.272H153.985V3.6H159.859V5.272H157.945L157.967 11.322H155.855Z" fill="#3D41D7"/>
</svg>
