<svg width="923" height="445" viewBox="0 0 923 445" fill="none" xmlns="http://www.w3.org/2000/svg">
<path d="M550.501 0H399.058C390.373 0 382.044 3.45011 375.902 9.59134C369.761 15.7326 366.311 24.0619 366.311 32.7469V143.828H378.231V32.9389C378.231 23.4029 386.178 15.6748 396.045 15.6748H429.931V22.8798C429.936 23.4482 430.053 24.0099 430.277 24.5327C430.5 25.0555 430.824 25.5291 431.231 25.926C431.638 26.323 432.119 26.6356 432.647 26.8459C433.175 27.0561 433.74 27.1599 434.308 27.1511H496.961C497.528 27.1599 498.091 27.0568 498.618 26.8479C499.145 26.639 499.626 26.3283 500.033 25.9335C500.441 25.5387 500.766 25.0675 500.991 24.547C501.216 24.0264 501.336 23.4667 501.345 22.8996V15.6748H535.224C545.065 15.6748 553.038 23.4029 553.038 32.9389V152.973H564.766V30.4622C564.766 16.5556 553.051 5.17858 538.641 5.17858C538.114 5.17858 537.609 4.96927 537.236 4.5967C536.864 4.22412 536.654 3.71881 536.654 3.19191C536.654 2.66501 536.864 2.1597 537.236 1.78713C537.609 1.41455 538.114 1.20524 538.641 1.20524C555.236 1.20524 568.739 14.3305 568.739 30.4622V152.973H583.242V32.7469C583.242 24.063 579.793 15.7347 573.653 9.59368C567.513 3.45264 559.185 0.00175609 550.501 0V0Z" fill="#3D41D7"/>
<path d="M378.231 237.453H366.311V369.977H378.231V237.453Z" fill="#3D41D7"/>
<path d="M553.038 191.468V281.391L564.766 283.55V191.468H553.038Z" fill="#3D41D7"/>
<path d="M564.772 401.969C564.772 401.969 564.772 401.916 564.772 401.896V300.927L553.044 299.06V407.267C553.044 416.803 545.098 424.531 535.231 424.531H396.045C386.628 424.531 378.92 417.445 378.284 408.472H366.364C367.318 425.69 382.039 440.497 399.475 440.497L540.999 439.364C540.995 438.916 541.144 438.479 541.42 438.125C541.697 437.772 542.085 437.522 542.522 437.418C552.131 435.12 558.786 428.537 562.302 417.856C563.956 412.723 564.79 407.361 564.772 401.969Z" fill="#3D41D7"/>
<path d="M568.739 191.462V285.318L575.964 292.603L568.739 297.391V401.85C568.799 407.669 567.923 413.46 566.143 419.001C562.945 428.815 557.104 435.762 549.084 439.384H550.501C559.184 439.383 567.511 435.933 573.65 429.793C579.79 423.653 583.24 415.327 583.242 406.644V191.462H568.739Z" fill="#3D41D7"/>
<path d="M541.085 439.828C541.189 440.261 541.435 440.647 541.785 440.923C542.134 441.199 542.566 441.35 543.012 441.351C543.168 441.353 543.324 441.335 543.475 441.298C545.402 440.841 547.28 440.201 549.084 439.384H541.032C541.03 439.534 541.047 439.683 541.085 439.828Z" fill="#3D41D7"/>
<path d="M512.265 129.325C523.171 136.16 536.356 140.457 554.6 140.696" stroke="#3D41D7" stroke-width="1.5" stroke-linecap="round" stroke-linejoin="round"/>
<path d="M376.675 59.4675C390.244 57.9576 429.348 46.9647 460.85 77.705C464.783 81.5393 468.412 85.3868 471.843 89.188" stroke="#3D41D7" stroke-width="1.5" stroke-linecap="round" stroke-linejoin="round"/>
<path d="M401.488 313.681C393.24 312.797 384.92 312.81 376.675 313.721" stroke="#3D41D7" stroke-width="1.5" stroke-linecap="round" stroke-linejoin="round"/>
<path d="M554.6 379.036C504.219 378.374 492.352 371.878 460.85 341.137C458.363 338.712 455.753 336.418 453.029 334.263" stroke="#3D41D7" stroke-width="1.5" stroke-linecap="round" stroke-linejoin="round"/>
<path d="M510.96 89.1881H424.03V176.118H510.96V89.1881Z" stroke="#C75353" stroke-width="1.5" stroke-linecap="round" stroke-linejoin="round"/>
<path d="M447.884 183.561H425.5V205.944H447.884V183.561Z" stroke="#C75353" stroke-width="1.5" stroke-linecap="round" stroke-linejoin="round"/>
<path d="M447.884 183.561L425.5 205.944" stroke="#C75353" stroke-width="1.5" stroke-linecap="round" stroke-linejoin="round"/>
<path d="M478.445 183.561H456.062V205.944H478.445V183.561Z" stroke="#C75353" stroke-width="1.5" stroke-linecap="round" stroke-linejoin="round"/>
<path d="M478.445 183.561L456.062 205.944" stroke="#C75353" stroke-width="1.5" stroke-linecap="round" stroke-linejoin="round"/>
<path d="M509 183.561H486.617V205.944H509V183.561Z" stroke="#C75353" stroke-width="1.5" stroke-linecap="round" stroke-linejoin="round"/>
<path d="M509.007 183.561L486.617 205.944" stroke="#C75353" stroke-width="1.5" stroke-linecap="round" stroke-linejoin="round"/>
<path d="M517.986 232.109H420.388C410.802 232.109 403.031 239.88 403.031 249.466V260.637C403.031 270.223 410.802 277.994 420.388 277.994H517.986C527.572 277.994 535.343 270.223 535.343 260.637V249.466C535.343 239.88 527.572 232.109 517.986 232.109Z" stroke="#C75353" stroke-width="1.5" stroke-linecap="round" stroke-linejoin="round"/>
<path d="M517.311 287.219H419.713C410.127 287.219 402.356 294.99 402.356 304.576V315.748C402.356 325.333 410.127 333.104 419.713 333.104H517.311C526.897 333.104 534.668 325.333 534.668 315.748V304.576C534.668 294.99 526.897 287.219 517.311 287.219Z" stroke="#C75353" stroke-width="1.5" stroke-linecap="round" stroke-linejoin="round"/>
<path d="M509.424 89.8105L424.03 176.118" stroke="#C75353" stroke-width="1.5" stroke-linecap="round" stroke-linejoin="round"/>
<path d="M393.369 143.828H259.117C251.122 143.828 244.641 150.309 244.641 158.304V222.977C244.641 230.972 251.122 237.453 259.117 237.453H393.369C401.364 237.453 407.846 230.972 407.846 222.977V158.304C407.846 150.309 401.364 143.828 393.369 143.828Z" stroke="#3D41D7" stroke-width="1.5" stroke-linecap="round" stroke-linejoin="round"/>
<path d="M308.016 179.065H307.559C306.198 179.065 305.095 180.168 305.095 181.528V183.978C305.095 185.339 306.198 186.442 307.559 186.442H308.016C309.376 186.442 310.479 185.339 310.479 183.978V181.528C310.479 180.168 309.376 179.065 308.016 179.065Z" fill="#C75353"/>
<path d="M299.718 179.065H269.322C267.493 179.065 266.011 180.547 266.011 182.376V183.131C266.011 184.96 267.493 186.442 269.322 186.442H299.718C301.547 186.442 303.029 184.96 303.029 183.131V182.376C303.029 180.547 301.547 179.065 299.718 179.065Z" fill="#3D41D7"/>
<path d="M303.069 213.321H269.322C267.493 213.321 266.011 214.804 266.011 216.633V217.388C266.011 219.216 267.493 220.699 269.322 220.699H303.069C304.898 220.699 306.38 219.216 306.38 217.388V216.633C306.38 214.804 304.898 213.321 303.069 213.321Z" fill="#3D41D7"/>
<path d="M335.511 201.918H279.527C277.698 201.918 276.216 203.401 276.216 205.229V205.984C276.216 207.813 277.698 209.295 279.527 209.295H335.511C337.34 209.295 338.822 207.813 338.822 205.984V205.229C338.822 203.401 337.34 201.918 335.511 201.918Z" fill="#C75353"/>
<path d="M372.84 201.918H345.643C343.814 201.918 342.332 203.401 342.332 205.229V205.984C342.332 207.813 343.814 209.295 345.643 209.295H372.84C374.669 209.295 376.151 207.813 376.151 205.984V205.229C376.151 203.401 374.669 201.918 372.84 201.918Z" fill="#C75353"/>
<path d="M385.125 190.515H384.668C383.307 190.515 382.204 191.618 382.204 192.978V195.428C382.204 196.789 383.307 197.892 384.668 197.892H385.125C386.485 197.892 387.588 196.789 387.588 195.428V192.978C387.588 191.618 386.485 190.515 385.125 190.515Z" fill="#3D41D7"/>
<path d="M327.439 190.495H269.322C267.493 190.495 266.011 191.977 266.011 193.806V194.561C266.011 196.39 267.493 197.872 269.322 197.872H327.439C329.267 197.872 330.75 196.39 330.75 194.561V193.806C330.75 191.977 329.267 190.495 327.439 190.495Z" fill="#3D41D7"/>
<path d="M346.563 179.065H316.167C314.339 179.065 312.856 180.547 312.856 182.376V183.131C312.856 184.96 314.339 186.442 316.167 186.442H346.563C348.392 186.442 349.874 184.96 349.874 183.131V182.376C349.874 180.547 348.392 179.065 346.563 179.065Z" fill="#3D41D7"/>
<path d="M376.006 190.468H336.961C335.133 190.468 333.65 191.951 333.65 193.779V194.574C333.65 196.403 335.133 197.885 336.961 197.885H376.006C377.835 197.885 379.317 196.403 379.317 194.574V193.779C379.317 191.951 377.835 190.468 376.006 190.468Z" fill="#C75353"/>
<path d="M272.945 163.059L282.494 157.324C282.64 157.243 282.804 157.202 282.971 157.205C283.224 157.208 283.467 157.31 283.646 157.49C283.825 157.669 283.928 157.911 283.931 158.165C283.93 158.336 283.884 158.503 283.798 158.651C283.712 158.798 283.589 158.921 283.441 159.006L275.262 163.92L283.441 168.866C283.589 168.952 283.712 169.074 283.798 169.222C283.884 169.369 283.93 169.537 283.931 169.708C283.928 169.961 283.825 170.203 283.646 170.383C283.467 170.562 283.224 170.664 282.971 170.668C282.804 170.671 282.64 170.63 282.494 170.549L272.945 164.814C272.784 164.733 272.65 164.61 272.555 164.457C272.461 164.305 272.411 164.129 272.411 163.949C272.411 163.77 272.461 163.594 272.555 163.442C272.65 163.289 272.784 163.166 272.945 163.085V163.059Z" fill="#3D41D7"/>
<path d="M293.805 153.636C293.89 153.547 293.993 153.476 294.107 153.428C294.221 153.38 294.343 153.356 294.467 153.357C294.721 153.357 294.966 153.459 295.146 153.639C295.326 153.819 295.427 154.063 295.427 154.318C295.428 154.458 295.401 154.598 295.348 154.728L287.666 173.933C287.601 174.074 287.502 174.197 287.379 174.292C287.256 174.386 287.112 174.45 286.959 174.476C286.806 174.503 286.649 174.492 286.501 174.445C286.353 174.397 286.219 174.315 286.11 174.204C286.021 174.118 285.951 174.015 285.903 173.901C285.855 173.788 285.831 173.665 285.831 173.542C285.829 173.4 285.859 173.26 285.917 173.131L293.593 153.927C293.645 153.818 293.717 153.719 293.805 153.636Z" fill="#3D41D7"/>
<path d="M308.883 163.92C308.882 164.098 308.833 164.273 308.741 164.425C308.649 164.578 308.517 164.703 308.36 164.787L298.804 170.522C298.659 170.603 298.494 170.644 298.327 170.641C298.074 170.638 297.832 170.536 297.652 170.356C297.473 170.177 297.371 169.935 297.367 169.681C297.369 169.51 297.414 169.343 297.5 169.195C297.586 169.048 297.709 168.925 297.857 168.84L306.069 163.92L297.857 159.006C297.709 158.921 297.586 158.798 297.5 158.651C297.414 158.503 297.369 158.336 297.367 158.165C297.371 157.911 297.473 157.669 297.652 157.49C297.832 157.31 298.074 157.208 298.327 157.205C298.494 157.202 298.659 157.243 298.804 157.324L308.373 163.059C308.527 163.144 308.655 163.269 308.745 163.42C308.834 163.572 308.882 163.744 308.883 163.92Z" fill="#3D41D7"/>
<path d="M737.434 364.732C737.587 360.137 736.429 355.593 734.094 351.633C731.759 347.672 728.344 344.459 724.249 342.369L703.581 331.045L702.018 338.124C701.132 341.8 698.839 344.981 695.631 346.984C692.424 348.986 688.558 349.649 684.867 348.831C681.175 348.013 677.952 345.778 675.892 342.608C673.831 339.438 673.097 335.585 673.847 331.879L675.913 322.562C673.242 320.793 671.252 318.168 670.271 315.118C670.092 314.529 669.94 313.92 669.814 313.304C663.611 311.444 656.977 311.608 650.874 313.774L620.161 324.674L580.825 282.875L554.058 310.927L604.022 368.341C605.596 370.154 607.689 371.44 610.017 372.026C612.345 372.612 614.797 372.47 617.042 371.619L625.544 367.805L610.558 440.206L624.273 440.47C620.657 439.808 622.452 436.901 624.836 436.04C626.359 435.491 628.544 434.55 630.379 433.815C627.778 434.619 625.265 435.682 622.876 436.987C620.505 437.941 617.816 436.325 617.578 435.53C617.412 435.034 618.287 433.981 619.929 432.802L619.306 433.093C614.724 434.199 612.552 433.928 613.764 431.464C614.618 429.709 626.213 423.716 628.485 423.041C630.756 422.365 650.57 419.511 650.57 419.511L655.649 440.563L725.593 440.994C732.785 440.994 738.599 436.146 738.48 428.961L737.434 364.732ZM702.104 409.856L654.179 420.511C654.038 420.542 653.893 420.558 653.749 420.557C653.258 420.558 652.785 420.378 652.42 420.051C652.055 419.725 651.823 419.274 651.77 418.787C651.716 418.3 651.845 417.81 652.131 417.412C652.417 417.014 652.839 416.736 653.318 416.63L699.568 406.366L697.853 382.433C697.834 382.172 697.867 381.91 697.949 381.662C698.032 381.414 698.163 381.185 698.334 380.987C698.505 380.789 698.714 380.627 698.947 380.51C699.181 380.393 699.436 380.323 699.697 380.304C699.958 380.286 700.22 380.318 700.468 380.401C700.716 380.484 700.946 380.614 701.143 380.785C701.341 380.957 701.503 381.165 701.62 381.399C701.737 381.633 701.807 381.888 701.826 382.149L703.667 407.79C703.697 408.264 703.555 408.734 703.268 409.113C702.982 409.492 702.569 409.755 702.104 409.856Z" fill="#3D41D7"/>
<path d="M557.627 298.152C557.627 298.152 546.455 297.821 539.138 293.517C534.767 290.967 529.112 287.471 528.84 285.954C528.324 283.127 535.224 286.02 536.323 286.391" stroke="#3D41D7" stroke-width="1.5" stroke-linecap="round" stroke-linejoin="round"/>
<path d="M563.898 303.384L560.634 298.828C554.415 297.828 549.985 296.238 547.005 294.623C543.144 292.523 531.383 282.782 531.158 281.497C530.562 278.08 536.39 278.186 540.681 283.63" stroke="#3D41D7" stroke-width="1.5" stroke-linecap="round" stroke-linejoin="round"/>
<path d="M549.713 290.232C549.713 290.232 543.714 287.113 541.105 283.961C538.495 280.809 536.654 278.332 537.131 277.703C537.608 277.074 541.032 277.173 542.833 278.981C545.118 282.239 552.104 285.709 552.104 285.709C551.336 285.597 546.806 282.484 544.581 280.412C542.356 278.339 541.369 274.524 547.462 277.604C547.462 277.604 553.952 281.094 556.356 282.021C556.356 282.021 566.547 283.305 569.832 286.729C570.494 287.391 572.342 289.318 575.004 291.987" stroke="#3D41D7" stroke-width="1.5" stroke-linecap="round" stroke-linejoin="round"/>
<path d="M619.319 433.093C614.737 434.199 612.565 433.928 613.777 431.464C614.631 429.709 626.226 423.716 628.498 423.041C630.769 422.365 650.583 419.511 650.583 419.511L655.662 440.563H626.968C620.021 441.007 622.028 437.06 624.862 436.04C627.697 435.02 632.935 432.577 633.716 432.775C633.716 432.775 626.24 434.908 622.902 436.987C620.531 437.941 617.843 436.325 617.604 435.53C617.366 434.736 619.531 432.716 623.167 430.895C625.878 429.579 628.664 428.425 631.511 427.438" stroke="#3D41D7" stroke-width="1.5" stroke-linecap="round" stroke-linejoin="round"/>
<path d="M708.303 313.993L702.045 338.104C701.635 339.955 700.864 341.707 699.777 343.259C698.69 344.812 697.307 346.135 695.708 347.153C694.109 348.171 692.325 348.864 690.458 349.192C688.591 349.519 686.677 349.476 684.827 349.064V349.064C682.976 348.655 681.223 347.885 679.67 346.798C678.116 345.711 676.792 344.328 675.774 342.729C674.755 341.13 674.062 339.345 673.734 337.478C673.405 335.611 673.449 333.697 673.861 331.846L675.774 323.237" stroke="#3D41D7" stroke-width="1.5" stroke-linecap="round" stroke-linejoin="round"/>
<path d="M716.62 299.258C716.62 299.258 728.149 276.796 705.541 264.823C703.435 263.703 688.88 256.346 681.893 268.134C677.258 276.001 673.827 285.093 671.688 292.318C671.688 292.358 667.457 305.9 670.298 315.145C673.139 324.389 685.171 327.588 692.628 325.959C700.084 324.33 701.859 322.793 705.044 318.999C708.23 315.204 716.594 299.324 716.594 299.324L716.62 299.258Z" stroke="#3D41D7" stroke-width="1.5" stroke-linecap="round" stroke-linejoin="round"/>
<path d="M671.688 292.272C673.827 285.047 677.224 275.955 681.893 268.087C682.105 267.723 682.33 267.379 682.555 267.054C678.754 264.094 672.622 270.206 668.37 282.769C666.172 289.272 660.166 292.537 660.166 292.537C664.755 296.556 668.887 294.815 671.609 292.537C671.662 292.371 671.688 292.278 671.688 292.272Z" fill="#3D41D7"/>
<path d="M682.383 288.106L677.516 300.344L681.529 301.814" stroke="#3D41D7" stroke-width="1.5" stroke-linecap="round" stroke-linejoin="round"/>
<path d="M679.108 287.283C679.536 286.285 679.36 285.251 678.715 284.974C678.069 284.697 677.199 285.282 676.771 286.281C676.343 287.279 676.518 288.312 677.164 288.589C677.809 288.866 678.679 288.281 679.108 287.283Z" fill="#3D41D7"/>
<path d="M690.297 292.085C690.531 291.025 690.165 290.042 689.479 289.891C688.794 289.739 688.048 290.477 687.814 291.537C687.58 292.598 687.946 293.581 688.631 293.732C689.317 293.883 690.063 293.146 690.297 292.085Z" fill="#3D41D7"/>
<path d="M698.78 288.106C698.459 287.114 697.877 286.225 697.096 285.534C696.314 284.844 695.361 284.376 694.336 284.179" stroke="#3D41D7" stroke-width="1.5" stroke-linecap="round" stroke-linejoin="round"/>
<path d="M683.708 279.12C683.708 279.12 680.171 275.882 677.516 277.796" stroke="#3D41D7" stroke-width="1.5" stroke-linecap="round" stroke-linejoin="round"/>
<path d="M740.765 292.616L728.56 286.424C730.09 277.319 729.15 263.246 712.084 255.3C685.416 242.91 675.662 269.624 675.662 269.624L736.765 300.457C737.284 300.746 737.856 300.927 738.447 300.989C739.038 301.052 739.635 300.994 740.203 300.82C740.771 300.646 741.298 300.358 741.753 299.976C742.207 299.593 742.579 299.122 742.847 298.592C743.115 298.061 743.273 297.482 743.312 296.889C743.35 296.296 743.268 295.702 743.071 295.141C742.874 294.581 742.566 294.066 742.165 293.627C741.764 293.189 741.279 292.836 740.738 292.59L740.765 292.616Z" fill="#C75353"/>
<path d="M679.516 310.781C676.787 305.238 689.502 308.986 689.502 308.986C689.502 308.986 685.906 321.767 679.516 310.781Z" fill="#3D41D7"/>
<path d="M727.116 295.616L701.336 282.603C698.343 291.927 694.588 310.668 710.561 315.575C710.561 315.575 723.044 319.714 726.626 315.615C726.626 315.615 718.064 309.331 720.004 304.198C720.004 304.198 728.778 317.171 739.063 310.278C739.063 310.278 726.898 306.377 727.116 295.616Z" fill="#3D41D7"/>
<path d="M656.08 152.954H535.701C527.706 152.954 521.225 159.435 521.225 167.43V176.986C521.225 184.981 527.706 191.462 535.701 191.462H656.08C664.075 191.462 670.556 184.981 670.556 176.986V167.43C670.556 159.435 664.075 152.954 656.08 152.954Z" stroke="#3D41D7" stroke-width="1.5" stroke-linecap="round" stroke-linejoin="round"/>
<path d="M540.416 168.237H652.378" stroke="#3D41D7" stroke-width="1.5" stroke-linecap="round" stroke-linejoin="round"/>
<path d="M540.416 177.787H593.546" stroke="#3D41D7" stroke-width="1.5" stroke-linecap="round" stroke-linejoin="round"/>
<path d="M463.227 369.977H342.848C334.854 369.977 328.372 376.458 328.372 384.453V394.009C328.372 402.004 334.854 408.485 342.848 408.485H463.227C471.222 408.485 477.703 402.004 477.703 394.009V384.453C477.703 376.458 471.222 369.977 463.227 369.977Z" stroke="#3D41D7" stroke-width="1.5" stroke-linecap="round" stroke-linejoin="round"/>
<path d="M347.557 385.261H459.519" stroke="#3D41D7" stroke-width="1.5" stroke-linecap="round" stroke-linejoin="round"/>
<path d="M347.557 394.81H400.694" stroke="#3D41D7" stroke-width="1.5" stroke-linecap="round" stroke-linejoin="round"/>
<path d="M290.672 71.1095H170.293C162.298 71.1095 155.817 77.5907 155.817 85.5857V95.1415C155.817 103.137 162.298 109.618 170.293 109.618H290.672C298.667 109.618 305.148 103.137 305.148 95.1415V85.5857C305.148 77.5907 298.667 71.1095 290.672 71.1095Z" stroke="#3D41D7" stroke-width="1.5" stroke-linecap="round" stroke-linejoin="round"/>
<path d="M175.008 86.3934H286.97" stroke="#3D41D7" stroke-width="1.5" stroke-linecap="round" stroke-linejoin="round"/>
<path d="M175.008 95.9427H228.145" stroke="#3D41D7" stroke-width="1.5" stroke-linecap="round" stroke-linejoin="round"/>
<path d="M166.049 259.353C145.016 265.405 140.354 273.922 142.93 282.259C134.494 287.325 117.223 299.742 101.78 323.674C80.357 356.871 149.46 409.346 161.638 409.346C173.816 409.346 259.693 375.798 259.693 375.798L264.74 360.514C268.304 349.754 268.675 338.192 265.808 327.226C262.94 316.26 256.957 306.359 248.581 298.722L248.177 298.358C238.906 290.06 230.039 279.729 221.43 275.65C220.232 269.432 216.868 262.79 207.974 259.094" stroke="#3D41D7" stroke-width="1.5" stroke-linecap="round" stroke-linejoin="round"/>
<path d="M219.569 274.822C220.503 279.63 220.139 284.199 220.02 286.974C219.523 298.583 215.152 304.854 213.841 309.185C222.311 304.132 230.138 292.51 233.953 284.908C231.556 282.636 223.794 276.908 219.569 274.822Z" fill="#3D41D7"/>
<path d="M173.28 310.092C169.088 308.165 147.791 294.417 144.195 281.034C139.884 283.345 133.169 287.385 128.997 292.365C133.825 295.285 161.016 311.45 173.041 310.582L173.525 310.543C173.412 310.364 173.333 310.211 173.28 310.092Z" fill="#3D41D7"/>
<path d="M205.994 310.211C210.576 296.861 207.093 282.007 203.881 277.643C201.865 285.602 198.035 292.986 192.69 299.218C184.889 290.331 175.938 282.523 166.075 276.001L166.459 275.557L165.558 275.597L160.698 280.603C160.698 280.603 183.876 298.232 191.418 340.707C196.319 368.301 198.835 394.221 198.835 394.221L213.205 393.453C213.205 393.453 201.001 324.734 205.994 310.211Z" fill="#C75353"/>
<path d="M159.764 246.122C157.572 247.082 153.453 249.684 155.99 255.075C158.261 259.902 162.738 258.446 165.413 256.989" stroke="#3D41D7" stroke-width="1.5" stroke-linecap="round" stroke-linejoin="round"/>
<path d="M201.027 222.838C205.822 235.102 207.484 249.539 207.65 256.28" stroke="#3D41D7" stroke-width="1.5" stroke-linecap="round" stroke-linejoin="round"/>
<path d="M170.863 267.326L170.671 270.723L166.075 276.021C175.939 282.543 184.889 290.351 192.69 299.238C199.392 291.407 203.69 281.806 205.067 271.591" stroke="#3D41D7" stroke-width="1.5" stroke-linecap="round" stroke-linejoin="round"/>
<path d="M165.797 246.174C167.519 247.234 173.221 254.366 175.068 257.902C175.068 257.902 183.465 252.479 196.557 249.042C196.557 249.042 203.762 247.419 206.828 247.578C206.828 247.578 209.477 261.028 205.385 269.346C201.292 277.663 188.511 278.796 181.717 276.054C174.922 273.312 173.492 271.604 171.062 267.505C168.631 263.406 161.036 247.764 161.036 247.764L165.797 246.174Z" stroke="#3D41D7" stroke-width="1.5" stroke-linecap="round" stroke-linejoin="round"/>
<path d="M162.83 249.923C162.83 249.923 157.36 244.784 154.268 238.797C152.826 236.078 152.357 232.947 152.938 229.925C153.518 226.902 155.113 224.168 157.459 222.176C161.539 218.792 165.406 219.699 165.406 219.699C165.406 219.699 158.42 212.573 163.969 203.302C164.942 201.692 166.233 200.296 167.763 199.201C169.294 198.106 171.031 197.333 172.869 196.932C175.394 196.333 178.038 196.485 180.477 197.367C182.917 198.249 185.046 199.824 186.604 201.898C186.604 201.898 191.902 181.8 214.232 187.402C216.483 187.965 219.457 190.363 221.026 192.078C230.529 202.494 212.53 222.063 201.603 225.957C189.61 230.235 181.909 229.977 177.2 227.944C180.564 229.016 181.823 248.241 162.83 249.923Z" fill="#3D41D7"/>
<path d="M196.253 243.678L200.444 254.936L196.107 254.896" stroke="#3D41D7" stroke-width="1.5" stroke-linecap="round" stroke-linejoin="round"/>
<path d="M201.932 244.306C202.589 244.143 202.918 243.189 202.667 242.173C202.416 241.158 201.68 240.466 201.023 240.628C200.366 240.791 200.037 241.746 200.288 242.761C200.539 243.776 201.275 244.468 201.932 244.306Z" fill="#3D41D7"/>
<path d="M191.207 246.875C191.882 246.838 192.384 245.962 192.328 244.917C192.271 243.873 191.678 243.056 191.002 243.092C190.326 243.129 189.824 244.005 189.881 245.05C189.938 246.094 190.531 246.911 191.207 246.875Z" fill="#3D41D7"/>
<path d="M182.922 240.539C183.381 239.647 184.071 238.895 184.921 238.362C185.77 237.828 186.747 237.533 187.75 237.506" stroke="#3D41D7" stroke-width="1.5" stroke-linecap="round" stroke-linejoin="round"/>
<path d="M197.359 232.043C197.359 232.043 201.219 229.519 203.444 231.738" stroke="#3D41D7" stroke-width="1.5" stroke-linecap="round" stroke-linejoin="round"/>
<path d="M196.081 262.836C192.273 262.478 190.968 260.571 190.968 260.571L197.551 260.141C197.551 260.141 198.604 262.776 196.081 262.836Z" fill="#3D41D7" stroke="#3D41D7" stroke-width="1.5" stroke-linecap="round" stroke-linejoin="round"/>
<path d="M175.856 306.913C175.856 306.913 182.313 321.893 183.339 332.469" stroke="#3D41D7" stroke-width="1.5" stroke-linecap="round" stroke-linejoin="round"/>
<path d="M210.537 307.596C210.537 307.596 211.682 320.655 212.815 331.224" stroke="#3D41D7" stroke-width="1.5" stroke-linecap="round" stroke-linejoin="round"/>
<path d="M131.467 338.826C131.467 338.826 138.334 331.25 149.546 338.217L159.545 329.33" stroke="#3D41D7" stroke-width="1.5" stroke-linecap="round" stroke-linejoin="round"/>
<path d="M174.796 352.56C173.584 351.951 148.638 337.713 148.638 337.713" stroke="#3D41D7" stroke-width="1.5" stroke-linecap="round" stroke-linejoin="round"/>
<path d="M236.668 337.422L231.701 326.131" stroke="#3D41D7" stroke-width="1.5" stroke-linecap="round" stroke-linejoin="round"/>
<path d="M173.565 396.585C173.565 396.585 148.705 386.254 117.971 364.951C87.2377 343.647 67.6426 376.639 75.927 390.115C83.2114 402.035 124.13 442.901 124.13 442.901L263.422 441.768C263.422 441.768 296.149 400.585 301.288 394.135C318.658 372.321 304.307 360.785 285.216 359.116C267.243 357.54 218.742 392.89 212.782 397.426L173.565 396.585Z" fill="#3D41D7"/>
<path d="M258.766 336.257H169.253C168.683 336.255 168.129 336.447 167.682 336.8C167.235 337.154 166.92 337.648 166.79 338.203L154.665 389.539H132.149C132.149 389.539 130.116 400.068 142.003 400.068H154.585C154.82 400.137 155.063 400.173 155.307 400.174H244.866C245.436 400.173 245.988 399.981 246.435 399.628C246.882 399.275 247.197 398.781 247.329 398.227L261.236 339.369C261.323 338.997 261.324 338.61 261.241 338.237C261.157 337.864 260.99 337.515 260.753 337.216C260.515 336.917 260.213 336.675 259.869 336.509C259.525 336.343 259.148 336.256 258.766 336.257Z" fill="#C75353"/>
<path d="M921.737 439.364L-83 444" stroke="#3D41D7" stroke-width="1.5" stroke-linecap="round" stroke-linejoin="round"/>
</svg>
